<?xml version="1.0" encoding="UTF-8"?>
<!DOCTYPE svg PUBLIC "-//W3C//DTD SVG 1.1//EN" "http://www.w3.org/Graphics/SVG/1.1/DTD/svg11.dtd">
<!-- Creator: CorelDRAW 2020 (64 Bit) -->
<svg xmlns="http://www.w3.org/2000/svg" xml:space="preserve" width="26.0096mm" height="26.0096mm" version="1.1" style="shape-rendering:geometricPrecision; text-rendering:geometricPrecision; image-rendering:optimizeQuality; fill-rule:evenodd; clip-rule:evenodd"
viewBox="0 0 2600.96 2600.96"
 xmlns:xlink="http://www.w3.org/1999/xlink"
 xmlns:xodm="http://www.corel.com/coreldraw/odm/2003">
 <defs>
  <style type="text/css">
   <![CDATA[
    .fil0 {fill:none}
    .fil1 {fill:#C70000;fill-rule:nonzero}
   ]]>
  </style>
 </defs>
 <g id="Camada_x0020_1">
  <metadata id="CorelCorpID_0Corel-Layer"/>
  <rect class="fil0" width="2600.96" height="2600.96"/>
  <path class="fil1" d="M1395.46 116.93c0,1.74 0,3.49 0,5.29 9.53,0.59 9.53,0.59 19.26,1.2 241.72,17.59 474.13,111.24 662.61,263.09 2.92,2.32 5.85,4.65 8.87,7.04 73.63,58.74 140.47,125.56 196.42,201.37 5.72,7.74 11.56,15.4 17.41,23.05 48.4,64.34 86.6,134.58 120.87,207.26 2.77,5.84 5.53,11.68 8.38,17.69 64.87,143.97 94.44,300.01 94.03,457.37 0,6.35 0,6.35 -0.01,12.83 -0.78,254.19 -88.96,509.49 -250.4,706.69 -6.47,8.09 -6.47,8.09 -13.07,16.34 -58.66,72.21 -124.98,138.89 -200.1,193.9 -8.74,6.41 -17.36,12.96 -25.97,19.53 -255.33,191.8 -589.44,265.97 -903.46,225 -311.87,-44.96 -612.77,-203.02 -804.64,-457.37 -3.45,-4.63 -3.45,-4.63 -6.96,-9.37 -4.45,-5.97 -8.93,-11.92 -13.45,-17.84 -148.11,-194.25 -228.95,-440.09 -227.6,-684.1 0.01,-5.65 0.01,-5.65 0.03,-11.41 0.89,-185.97 44.81,-368.93 133.76,-532.69 1.86,-3.5 3.72,-7 5.64,-10.61 75.51,-141.86 184.44,-271.51 311.51,-369.97 2.87,-2.24 5.73,-4.48 8.68,-6.79 53.98,-41.94 111.05,-76.83 171.04,-109.5 3.6,-1.97 7.2,-3.94 10.92,-5.96 128.46,-69.33 268.37,-108.86 411.94,-131.47 3.64,-0.62 7.28,-1.25 11.03,-1.9 83.27,-14.25 169.08,-9.64 253.26,-8.67zm-274.86 417.58c-4.38,1.02 -8.75,2.04 -13.25,3.09 -71.63,17.37 -137.26,44.13 -203.47,76.2 21.49,25.79 44.02,50.04 67.83,73.71 5.18,5.19 5.18,5.19 10.48,10.48 11.31,11.31 22.64,22.6 33.97,33.89 7.9,7.89 15.79,15.77 23.69,23.66 20.68,20.67 41.39,41.32 62.09,61.97 21.17,21.1 42.31,42.23 63.46,63.35 41.43,41.38 82.88,82.73 124.34,124.08 28.88,-20.61 54.68,-42.6 79.6,-67.82 3.46,-3.46 6.92,-6.92 10.49,-10.48 11.29,-11.3 22.54,-22.64 33.8,-33.98 7.88,-7.9 15.75,-15.79 23.64,-23.68 20.63,-20.68 41.24,-41.38 61.83,-62.1 21.07,-21.17 42.16,-42.31 63.25,-63.46 41.31,-41.42 82.58,-82.87 123.83,-124.34 -74.79,-79.11 -241.36,-98.69 -344.59,-101.91 -74.84,-1.37 -147.95,0.13 -220.99,17.34zm-528.58 385.86c-97.95,162.56 -129.81,366.18 -85.89,551.27 2.15,8.31 4.35,16.6 6.6,24.88 1.08,4.05 2.16,8.09 3.26,12.26 18.13,65.71 48.03,124.09 81.31,183.32 28.48,-20.37 54.04,-41.97 78.63,-66.86 3.36,-3.35 6.71,-6.71 10.17,-10.17 10.95,-10.95 21.86,-21.95 32.78,-32.94 7.64,-7.66 15.28,-15.32 22.93,-22.98 20,-20.05 39.98,-40.13 59.95,-60.21 20.43,-20.54 40.89,-41.04 61.34,-61.55 40.05,-40.17 80.07,-80.36 120.07,-120.58 -4.94,-5.82 -9.88,-11.63 -14.82,-17.43 -2.75,-3.24 -5.5,-6.48 -8.34,-9.81 -13.55,-15.46 -28.09,-29.85 -42.73,-44.27 -3.15,-3.13 -6.3,-6.26 -9.55,-9.49 -13.31,-13.23 -26.66,-26.42 -40,-39.62 -9.81,-9.72 -19.61,-19.45 -29.41,-29.18 -2.94,-2.91 -5.89,-5.81 -8.93,-8.8 -15.33,-15.24 -29.96,-30.82 -44.09,-47.18 -18.87,-21.81 -38.86,-42.29 -59.28,-62.64 -3.69,-3.7 -7.38,-7.39 -11.18,-11.2 -7.71,-7.72 -15.43,-15.43 -23.16,-23.13 -11.88,-11.86 -23.74,-23.74 -35.59,-35.63 -7.52,-7.52 -15.04,-15.03 -22.57,-22.54 -3.56,-3.57 -7.11,-7.14 -10.78,-10.81 -3.26,-3.26 -6.53,-6.51 -9.9,-9.85 -4.32,-4.32 -4.32,-4.32 -8.73,-8.72 -5.93,-6.73 -5.93,-6.73 -12.09,-6.14zm1404.53 22.12c-5.3,5.34 -10.6,10.69 -15.88,16.06 -4.23,4.27 -4.23,4.27 -8.56,8.62 -12.11,12.2 -24.2,24.44 -36.29,36.67 -57.77,58.41 -57.77,58.41 -80.15,77.4 -33.8,28.77 -64.3,61.31 -95.49,92.85 -76.96,77.8 -76.96,77.8 -107.84,103.73 -14.19,12.21 -27.1,25.59 -40.16,38.99 6.83,15.03 14.01,25.89 25.68,37.53 3.09,3.09 6.17,6.19 9.35,9.38 5.06,5.01 5.06,5.01 10.22,10.11 3.56,3.56 7.12,7.12 10.78,10.79 11.76,11.75 23.56,23.46 35.35,35.18 8.17,8.14 16.33,16.29 24.49,24.44 21.47,21.43 42.98,42.83 64.49,64.23 21.95,21.84 43.87,43.71 65.8,65.58 43.01,42.9 86.06,85.77 129.13,128.62 22.36,-21.81 22.36,-21.81 38.48,-48.19 2.89,-6.06 2.89,-6.06 5.84,-12.24 1.95,-4.26 3.89,-8.52 5.89,-12.91 3.09,-6.71 3.09,-6.71 6.25,-13.56 17.64,-38.96 33.02,-77.83 43.97,-119.25 1.03,-3.82 2.05,-7.63 3.11,-11.57 46.58,-180.75 21.01,-383.97 -72.26,-545.83 -2.4,-4.05 -2.4,-4.05 -4.85,-8.18 -7.44,-0.61 -7.44,-0.61 -17.35,11.55zm-706.81 691.46c-9,5.18 -9,5.18 -17.84,13.88 -3.72,3.43 -7.45,6.87 -11.29,10.4 -27.68,26.77 -54.81,54.06 -81.87,81.44 -66.79,67.58 -66.79,67.58 -99.57,95.48 -28.57,25.57 -55.12,53.4 -82.13,80.6 -6.34,6.36 -12.67,12.73 -19.01,19.09 -11.54,11.57 -23.06,23.15 -34.58,34.75 -7.89,7.94 -15.79,15.88 -23.71,23.8 186.73,103.25 415.22,115.42 618.1,58.8 40.12,-11.67 78.73,-25.22 116.62,-42.95 -8.35,-20.35 -21.31,-33.01 -36.89,-48.31 -2.6,-2.57 -5.2,-5.14 -7.87,-7.78 -8.29,-8.2 -16.62,-16.36 -24.94,-24.51 -10.89,-10.7 -21.76,-21.4 -32.61,-32.13 -3.99,-3.95 -3.99,-3.95 -8.06,-7.98 -13.69,-13.63 -26.86,-27.46 -39.34,-42.2 -30,-35.17 -63.91,-66.91 -96.74,-99.39 -13.74,-13.6 -27.46,-27.22 -41.17,-40.84 -3.1,-3.06 -6.2,-6.12 -9.4,-9.27 -14.09,-14.01 -27.41,-28.05 -39.81,-43.6 -10.93,-15.13 -10.93,-15.13 -27.89,-19.28z"/>
 </g>
</svg>
