<?xml version="1.0" encoding="UTF-8"?>
<svg version="1.1" xmlns="http://www.w3.org/2000/svg" width="640" height="480">
<path d="M0 0 C0 0.33 0 0.66 0 1 C1.80404297 1.11214844 1.80404297 1.11214844 3.64453125 1.2265625 C49.37505883 4.55490598 93.3434394 22.2730898 129 51 C129.55413574 51.43989258 130.10827148 51.87978516 130.67919922 52.33300781 C144.60804351 63.44436037 157.25380781 76.08684392 167.83886719 90.42871094 C168.92143281 91.8936799 170.02630542 93.34209171 171.1328125 94.7890625 C180.28929593 106.9617993 187.51703812 120.25116116 194 134 C194.52335937 135.10472656 195.04671875 136.20945313 195.5859375 137.34765625 C207.85719527 164.58465432 213.45183883 194.10460931 213.375 223.875 C213.37418427 225.07722702 213.37418427 225.07722702 213.37335205 226.30374146 C213.22446085 274.39142914 196.54239111 322.69158777 166 360 C164.77603516 361.52947266 164.77603516 361.52947266 163.52734375 363.08984375 C152.42904283 376.75206655 139.88363454 389.36549258 125.67089844 399.7734375 C124.01828746 400.98657566 122.38775631 402.22538912 120.7578125 403.46875 C72.4527306 439.75496497 9.24318923 453.78689603 -50.1640625 446.03515625 C-109.16567549 437.53034315 -166.09286774 407.62743757 -202.390625 359.5078125 C-203.04321289 358.63044434 -203.04321289 358.63044434 -203.70898438 357.73535156 C-204.55007113 356.60478336 -205.39744514 355.47885704 -206.25195312 354.35839844 C-234.27367347 317.61042128 -249.5672688 271.10106141 -249.3125 224.9375 C-249.30926727 223.86858521 -249.30926727 223.86858521 -249.30596924 222.77807617 C-249.13664846 187.59458944 -240.82794334 152.98177062 -224 122 C-223.64824707 121.33806641 -223.29649414 120.67613281 -222.93408203 119.99414062 C-208.6481544 93.15585861 -188.03910042 68.62797044 -164 50 C-163.45778809 49.57605957 -162.91557617 49.15211914 -162.35693359 48.71533203 C-152.14512554 40.78183256 -141.34884836 34.17927481 -130 28 C-129.31824707 27.62746094 -128.63649414 27.25492188 -127.93408203 26.87109375 C-103.63113977 13.75464396 -77.1617133 6.27659332 -50 2 C-49.31147949 1.88140625 -48.62295898 1.7628125 -47.91357422 1.640625 C-32.15979855 -1.05520827 -15.9247424 -0.18315638 0 0 Z M-52 79 C-52.82725586 79.19335938 -53.65451172 79.38671875 -54.50683594 79.5859375 C-68.05665355 82.87074177 -80.47370834 87.9336679 -93 94 C-88.93445329 98.87976751 -84.67173724 103.46855256 -80.16845703 107.94506836 C-79.18690895 108.92683548 -79.18690895 108.92683548 -78.18553162 109.92843628 C-76.04532311 112.06795414 -73.90160617 114.20391876 -71.7578125 116.33984375 C-70.26401251 117.83177655 -68.77043472 119.32393186 -67.27706909 120.81629944 C-63.36337761 124.72618949 -59.44669135 128.63306594 -55.52935791 132.53930664 C-51.52555912 136.53284006 -47.52462187 140.52923809 -43.5234375 144.52539062 C-35.68507787 152.35305485 -27.84354907 160.17753599 -20 168 C-14.53682357 164.09925457 -9.65622132 159.93998953 -4.94140625 155.16845703 C-4.28674881 154.51409164 -3.63209137 153.85972626 -2.95759583 153.18553162 C-0.82111473 151.04767074 1.30821768 148.90284125 3.4375 146.7578125 C4.92778394 145.26379362 6.41851362 143.77021924 7.90966797 142.27706909 C11.81355528 138.36558321 15.71139621 134.44812649 19.60797119 130.52935791 C23.59305727 126.52373172 27.58388404 122.5238339 31.57421875 118.5234375 C39.38841344 110.6878596 47.19622684 102.84595623 55 95 C40.85106512 80.03367556 9.33923297 76.32979855 -10.19140625 75.71875 C-24.34991844 75.46122496 -38.18151858 75.74442947 -52 79 Z M-152 152 C-170.53120202 182.75390973 -176.55767572 221.27533185 -168.25 256.29296875 C-167.84192879 257.86423661 -167.42539294 259.43333295 -167 261 C-166.79632813 261.76521973 -166.59265625 262.53043945 -166.3828125 263.31884766 C-162.95419174 275.75024344 -157.29618498 286.79510425 -151 298 C-145.61258794 294.14675746 -140.77655697 290.06137147 -136.125 285.35205078 C-135.4898497 284.71719254 -134.8546994 284.08233429 -134.20030212 283.42823792 C-132.12875077 281.35530744 -130.06434981 279.27541261 -128 277.1953125 C-126.55455669 275.74613401 -125.10866744 274.29740018 -123.66235352 272.84909058 C-119.87683222 269.05597258 -116.09735864 265.25688484 -112.31915283 261.45648193 C-108.45471511 257.57150005 -104.58453286 253.69224995 -100.71484375 249.8125 C-93.13762606 242.21390238 -85.56679103 234.6089797 -78 227 C-78.93321123 225.89963404 -79.86812525 224.80071211 -80.8037262 223.70237732 C-81.32416787 223.09025611 -81.84460955 222.4781349 -82.38082218 221.84746456 C-84.94431947 218.9225416 -87.69541761 216.20100992 -90.46484375 213.47265625 C-91.06124161 212.88004501 -91.65763947 212.28743378 -92.27210999 211.67686462 C-94.79045153 209.17466326 -97.31476382 206.6785186 -99.83862305 204.18188477 C-101.69532925 202.34344519 -103.54888353 200.50186741 -105.40234375 198.66015625 C-105.95985825 198.11094009 -106.51737274 197.56172394 -107.09178162 196.99586487 C-109.99264138 194.11272737 -112.76001676 191.16536262 -115.43432617 188.07006836 C-119.00460666 183.94340617 -122.78519349 180.07015784 -126.6484375 176.21875 C-127.34643463 175.51979614 -128.04443176 174.82084229 -128.76358032 174.10070801 C-130.2228328 172.64078074 -131.68332588 171.18209252 -133.14501953 169.72460938 C-135.39343083 167.48161356 -137.63637911 165.23325214 -139.87890625 162.984375 C-141.3017623 161.56217874 -142.72492798 160.14029218 -144.1484375 158.71875 C-144.82127777 158.0438855 -145.49411804 157.369021 -146.18734741 156.67370605 C-146.8053421 156.05886353 -147.42333679 155.444021 -148.06005859 154.81054688 C-148.87777237 153.99402649 -148.87777237 153.99402649 -149.71200562 153.16101074 C-150.8347898 151.88840949 -150.8347898 151.88840949 -152 152 Z M113.71850586 156.18383789 C112.71490716 157.19442133 111.71388472 158.2075669 110.71484375 159.22265625 C109.91307457 160.03010536 109.91307457 160.03010536 109.09510803 160.85386658 C106.80287044 163.16243549 104.51638245 165.47666599 102.22973633 167.79077148 C91.29914803 178.84145878 91.29914803 178.84145878 87.06640625 182.43359375 C80.67080686 187.87809994 74.90196627 194.03341366 69 200 C54.44077654 214.71863102 54.44077654 214.71863102 48.59960938 219.62524414 C45.91373875 221.93356793 43.47197864 224.46622189 41 227 C42.29298895 229.84374027 43.65039898 231.89894298 45.86001587 234.1005249 C46.44334183 234.68660019 47.02666779 235.27267548 47.62767029 235.87651062 C48.5846859 236.8227404 48.5846859 236.8227404 49.56103516 237.78808594 C50.23432358 238.46166641 50.907612 239.13524689 51.6013031 239.82923889 C53.82584803 242.05239154 56.05739129 244.26837793 58.2890625 246.484375 C59.83363662 248.02521865 61.37776951 249.56650472 62.92147827 251.10821533 C66.98428698 255.16339037 71.05306622 259.21252324 75.12310791 263.26043701 C79.27579106 267.39265611 83.42281344 271.53054757 87.5703125 275.66796875 C95.70800398 283.78421499 103.85201269 291.89409083 112 300 C116.23133082 295.87339472 116.23133082 295.87339472 119.28125 290.8828125 C119.82809448 289.7373999 119.82809448 289.7373999 120.38598633 288.56884766 C120.75361084 287.76237793 121.12123535 286.9559082 121.5 286.125 C122.08527466 284.855354 122.08527466 284.855354 122.68237305 283.56005859 C126.01887954 276.18988586 128.92848112 268.83623839 131 261 C131.19464844 260.27780273 131.38929688 259.55560547 131.58984375 258.81152344 C140.40165554 224.6153584 135.56335418 186.16840541 117.91796875 155.546875 C117.46357422 154.78117188 117.46357422 154.78117188 117 154 C115.59402947 153.88475382 115.59402947 153.88475382 113.71850586 156.18383789 Z M-20 287 C-21.70290064 287.97881248 -21.70290064 287.97881248 -23.375 289.625 C-24.08011719 290.2746875 -24.78523438 290.924375 -25.51171875 291.59375 C-30.74745474 296.65687931 -35.88049769 301.8197235 -41 307 C-53.6351324 319.78512549 -53.6351324 319.78512549 -59.83691406 325.06396484 C-65.24229055 329.90195983 -70.2658286 335.16604051 -75.375 340.3125 C-76.57398351 341.51651035 -77.77320054 342.72028819 -78.97265625 343.92382812 C-81.1542736 346.11356204 -83.33462472 348.30453765 -85.51318359 350.49731445 C-87.0066635 352.00032471 -88.50174734 353.50174734 -90 355 C-54.67203033 374.53428911 -11.44495637 376.83733041 26.9375 366.125 C34.52661606 363.91670299 41.83202997 361.35395699 49 358 C47.42035813 354.14972794 44.96855605 351.75374465 42.01953125 348.859375 C41.52845383 348.37349915 41.0373764 347.88762329 40.53141785 347.38702393 C38.96314352 345.83649697 37.38836518 344.29280844 35.8125 342.75 C33.75305438 340.72743901 31.69687906 338.70163824 29.64453125 336.671875 C28.88952332 335.92525101 28.88952332 335.92525101 28.1192627 335.1635437 C25.52926439 332.58410391 23.03815642 329.96851935 20.67578125 327.1796875 C15.00134177 320.52624662 8.58553018 314.52125165 2.375 308.375 C-0.22431543 305.80244223 -2.82018317 303.22647506 -5.4140625 300.6484375 C-6.00063629 300.07016205 -6.58721008 299.4918866 -7.19155884 298.89608765 C-9.85879309 296.24465324 -12.37722131 293.58811845 -14.72412109 290.64697266 C-16.79165685 287.78434705 -16.79165685 287.78434705 -20 287 Z " fill="#C70000" transform="translate(338,16)"/>
</svg>
